PathFileType	4	(X/Y/Z)	Patient4_TMGait_0pt8_01_right_48.trc.trc
DataRate	CameraRate	NumFrames	NumMarkers	Units	OrigDataRate	OrigDataStartFrame	OrigNumFrames
88.050314465409	88.050314465409	4	33	mm	88.050314465409	71	       141
Frame#	Time	Sacral			L.Shoulder			Chest			R.Shoulder			Neck			R.ASIS			L.ASIS			R.Thigh.Superior			R.Thigh.Lateral			R.Thigh.Inferior			R.Patella			L.Thigh.Superior			L.Thigh.Lateral			L.Thigh.Inferior			L.Patella			L.Shank.Superior			L.Shank.Lateral			L.Shank.Inferior			R.Shank.Superior			R.Shank.Lateral			R.Shank.Inferior			R.Heel			R.Midfoot.Superior			R.Midfoot.Lateral			R.Toe			L.Heel			L.Midfoot.Lateral			L.Midfoot.Superior			L.Toe			L.Elbow			L.Wrist			R.Elbow			R.Wrist			
		X1	Y1	Z1	X2	Y2	Z2	X3	Y3	Z3	X4	Y4	Z4	X5	Y5	Z5	X6	Y6	Z6	X7	Y7	Z7	X8	Y8	Z8	X9	Y9	Z9	X10	Y10	Z10	X11	Y11	Z11	X12	Y12	Z12	X13	Y13	Z13	X14	Y14	Z14	X15	Y15	Z15	X16	Y16	Z16	X17	Y17	Z17	X18	Y18	Z18	X19	Y19	Z19	X20	Y20	Z20	X21	Y21	Z21	X22	Y22	Z22	X23	Y23	Z23	X24	Y24	Z24	X25	Y25	Z25	X26	Y26	Z26	X27	Y27	Z27	X28	Y28	Z28	X29	Y29	Z29	X30	Y30	Z30	X31	Y31	Z31	X32	Y32	Z32	X33	Y33	Z33	

71	54.825000000000	905.061548867202	1004.210851287902	548.175408759285	1056.977894435640	1424.224662323113	341.660773155533	1187.709276996489	1351.274094552082	480.535738188137	1142.136320268665	1431.697252386075	663.820711351467	1069.523139399128	1483.699684646529	497.521554140734	1138.701585390676	927.250687718343	629.514904348391	1090.416419672697	951.563260907466	359.086766321621	1119.755461912100	712.610614739881	606.514961914509	1010.898087165994	626.714153901614	674.943129169229	1061.311961587473	557.155592556997	592.950801119688	1037.225893205710	474.619904415795	599.724209566953	1169.313237229512	772.388596590999	391.474628777251	1119.712846842885	642.227924813656	315.207193923165	1224.927906633490	585.256691620256	374.171183659680	1253.481875600860	525.173671254144	369.906425182394	1243.565672951943	453.463319137925	359.398537260028	1190.556911389104	315.733532817127	315.340287713455	1292.532048592173	229.549898713785	366.359707453774	994.656897549447	392.934468199270	608.836023437642	907.796724215155	302.849356034559	671.909542732347	932.643221480085	202.045974432317	609.088439189539	778.092369724916	47.324661691099	575.717087330594	948.330059746452	97.204024824171	619.794879881552	856.990124894052	38.616289723191	654.258678213965	1065.447407825437	40.620062738176	655.727393750108	1234.733744019847	43.861772688850	413.471458925640	1305.542919168972	52.324358701923	331.017529394001	1366.724662502015	138.251362773575	345.795007169965	1502.184949477488	122.778393783349	317.261996832999	895.065124952550	1105.267698520958	275.544296317422	843.493702275982	851.636231585747	308.198846497322	1341.256773009284	1164.891733999113	755.677534190267	1505.684473629135	1323.819382972890	659.652228984247	
72	54.836357142857	906.305305691846	1002.429675350912	545.356601994829	1057.305712099044	1422.755114361075	339.817908378190	1188.005727860097	1349.970206715039	478.836336711270	1141.723307688747	1430.112348286182	661.987727814044	1069.402375093968	1482.014346673600	495.870601781348	1139.634272282003	925.467540277597	627.578851863089	1092.233410904060	949.424191586620	356.962250815299	1119.395077932735	710.674100361446	605.266740803348	1009.658806694636	625.532179769907	673.509372815613	1059.862061895654	555.283872604183	591.892004176703	1034.867363776491	472.474119358835	598.533875699844	1171.036280652624	769.872699611223	389.181832596920	1119.054467170190	638.805832702090	315.451166497226	1225.008972959873	582.370868654590	373.199759932404	1252.225453934663	521.148256172758	370.216469095574	1241.718376568285	449.079608384606	360.273006501666	1186.263568486954	311.940743885152	317.719175717660	1287.018784075345	224.656470946566	368.974850918120	990.883759107545	391.383249012354	607.865547525967	902.710378286452	302.872380770775	671.457836529306	925.609037459157	201.551966286578	608.873224696628	768.983556275694	48.221755574738	576.126176746229	939.464787418372	97.281825847042	619.987635521275	847.972958545971	38.950160730090	654.542411806179	1056.460484483198	40.310711200035	655.856271044263	1225.892163120314	41.783281967087	417.555005806627	1295.779454929450	48.436199715075	334.097990659233	1359.673986604284	131.816331283216	348.634760653593	1494.213080847690	112.024531591710	318.237878725581	893.396132142868	1105.322630799899	274.627358503621	838.593394143070	852.437204645772	307.611976905280	1344.911965126038	1167.431421555577	752.830105581950	1502.705532164251	1332.690137443897	657.425350104827	
73	54.847714285714	907.571545794206	1000.587439686294	542.327613582165	1057.776190262152	1421.201736334986	337.741696490054	1188.333051900765	1348.688771163296	477.042032425403	1141.165511835477	1428.512814551906	660.084178279498	1069.318531388136	1480.345743126826	493.991507570030	1140.635314555846	923.680456499542	625.636811878737	1094.256899882165	947.345573650086	354.816575058424	1119.508329101275	708.782165542080	604.033589338074	1008.911637587610	624.280884087965	671.922970973460	1059.127116722190	553.333964529834	590.791761627197	1033.218871316778	470.081649051257	597.276794146876	1173.010368574508	767.373513507940	386.785170782074	1118.700004267543	635.593619704292	315.546088443918	1225.324924803322	579.607073054154	372.306414764046	1251.070356420272	517.146578525274	370.699274226510	1239.969299650931	444.743549665377	361.173474805383	1182.036170861492	308.349635645698	319.660382670067	1281.161114723288	219.715229469696	371.478466281640	987.656238317865	389.710894168181	606.813046966417	898.022796438535	302.959630786174	670.908192804143	918.827172606718	201.087134288284	608.638021348919	759.890459454547	49.403182146422	576.620474080537	930.694760692969	97.376676515831	620.210939100856	838.976315866458	39.387103969631	654.859082700816	1047.500451960851	40.005386873169	655.989291236855	1215.893796672971	39.963167617264	420.974008703071	1285.130728256573	44.781977055643	336.730954400159	1352.071171561151	125.186904276904	351.557488528982	1485.651803596197	100.467654539398	319.650286765594	892.586243052805	1104.832511686389	273.336784159798	834.850109859995	852.684166998318	306.480367257646	1347.635922067708	1169.244882447692	750.242066948120	1499.324532669111	1339.932268263422	655.517833984007	
74	54.859071428571	908.827503805518	998.766488092071	539.146888015475	1058.383488950705	1419.636079994757	335.453606522460	1188.692804791182	1347.491758031184	475.162109738749	1140.504633686045	1426.973571833884	658.124981368191	1069.292913534034	1478.777955078103	491.894865758596	1141.692545890249	921.953345808298	623.676114020553	1096.419330948232	945.454346161374	352.664834855501	1120.068046920510	706.995143427421	602.772537681041	1008.658462688168	623.003148398555	670.170127701381	1059.103117981715	551.364582785259	589.614359863043	1032.307219062435	467.477291541083	595.960429564760	1175.140580113412	764.992284525698	384.351668797580	1118.686115453292	632.783385702283	315.357185721627	1225.820812620650	577.094956694215	371.471664646056	1250.029533747481	513.401104834405	371.214769673539	1238.389113920624	440.707463604076	361.945140637261	1178.146016083252	305.144032072467	320.991011496737	1275.336549732241	215.051349810016	373.693753493206	984.985571643134	387.983537815517	605.692912293400	893.741939707702	303.190616819587	670.259229137608	912.333172340422	200.727989636352	608.394496205398	750.847257551070	50.987499174303	577.192200143917	922.071285430505	97.495186294471	620.470224311598	830.015039909965	39.991514853278	655.196279592606	1038.559192964604	39.707238311155	656.121421413366	1205.403124246536	38.528541587723	423.630158526169	1274.265550372807	41.603760838799	338.834942445993	1344.360548351327	118.818119042994	354.395230555771	1476.978698614003	88.931329590335	321.392914034734	892.659882883998	1103.826720962671	271.643398849629	832.336463492018	852.374203336350	304.765294089116	1349.419690589575	1170.253785590225	747.947270009015	1495.621078593540	1345.534437972543	653.926760521226	
